<svg width="40" height="40" viewBox="0 0 40 40" fill="none" xmlns="http://www.w3.org/2000/svg">
<path d="M20 36.6668C29.2048 36.6668 36.6667 29.2049 36.6667 20.0002C36.6667 10.7954 29.2048 3.3335 20 3.3335C10.7953 3.3335 3.33337 10.7954 3.33337 20.0002C3.33337 29.2049 10.7953 36.6668 20 36.6668Z" stroke="#020202" stroke-width="3.5" stroke-linecap="round" stroke-linejoin="round"/>
<path d="M20 30.0002C25.5229 30.0002 30 25.523 30 20.0002C30 14.4773 25.5229 10.0002 20 10.0002C14.4772 10.0002 10 14.4773 10 20.0002C10 25.523 14.4772 30.0002 20 30.0002Z" stroke="#020202" stroke-width="3.5" stroke-linecap="round" stroke-linejoin="round"/>
<path d="M20 23.3335C21.841 23.3335 23.3334 21.8411 23.3334 20.0002C23.3334 18.1592 21.841 16.6668 20 16.6668C18.1591 16.6668 16.6667 18.1592 16.6667 20.0002C16.6667 21.8411 18.1591 23.3335 20 23.3335Z" stroke="#020202" stroke-width="3.5" stroke-linecap="round" stroke-linejoin="round"/>
</svg>
