<svg width="474" height="474" viewBox="0 0 474 474" fill="none" xmlns="http://www.w3.org/2000/svg">
<g filter="url(#filter0_ddii_0_22)">
<path d="M68.7655 196.737C66.0663 196.154 64.3436 193.491 65.0049 190.81C70.2252 169.646 79.4251 149.651 92.1293 131.899C105.804 112.791 123.249 96.6881 143.388 84.5827C163.527 72.4773 185.932 64.6266 209.222 61.5149C232.512 58.4032 256.193 60.0965 278.803 66.4903C301.414 72.8841 322.474 83.8428 340.686 98.6905C358.897 113.538 373.873 131.96 384.69 152.819C395.507 173.678 401.936 196.532 403.579 219.972C405.105 241.747 402.472 263.599 395.836 284.363C394.995 286.993 392.133 288.36 389.528 287.443L343.149 271.12C340.544 270.203 339.187 267.351 339.987 264.708C343.964 251.579 345.517 237.821 344.556 224.109C343.478 208.733 339.261 193.741 332.165 180.057C325.069 166.373 315.245 154.289 303.298 144.549C291.351 134.809 277.535 127.62 262.703 123.426C247.871 119.231 232.336 118.12 217.058 120.162C201.779 122.203 187.081 127.353 173.87 135.294C160.659 143.235 149.215 153.799 140.245 166.334C132.245 177.512 126.364 190.046 122.876 203.313C122.174 205.983 119.524 207.702 116.825 207.119L68.7655 196.737Z" fill="#19B36B"/>
<path d="M81.1428 303.631C78.6483 304.816 75.6586 303.756 74.5471 301.228C61.3002 271.1 56.9753 237.8 62.087 205.288C62.5159 202.56 65.1358 200.771 67.8501 201.279L116.179 210.324C118.893 210.832 120.67 213.443 120.283 216.178C117.419 236.397 120.097 257.017 128.031 275.834C129.103 278.378 128.053 281.357 125.558 282.542L81.1428 303.631Z" fill="#4E9DD5"/>
<path d="M319.587 374.188C321.035 376.539 320.307 379.626 317.915 381.005C299.03 391.894 278.234 399.101 256.63 402.227C233.375 405.592 209.677 404.156 186.999 398.008C164.32 391.861 143.142 381.132 124.77 366.483C107.702 352.874 93.3932 336.15 82.5933 317.215C81.2252 314.816 82.1555 311.784 84.5929 310.486L127.992 287.378C130.43 286.081 133.448 287.011 134.853 289.388C141.83 301.199 150.91 311.651 161.657 320.221C173.709 329.83 187.602 336.869 202.479 340.902C217.356 344.934 232.902 345.876 248.157 343.669C261.761 341.701 274.877 337.265 286.864 330.595C289.277 329.253 292.352 329.974 293.8 332.325L319.587 374.188Z" fill="#D34ED5"/>
<path d="M388.052 291.471C390.632 292.455 391.933 295.348 390.875 297.898C378.266 328.299 357.197 354.446 330.172 373.231C327.905 374.807 324.801 374.151 323.292 371.838L296.414 330.667C294.904 328.355 295.563 325.266 297.806 323.655C314.394 311.746 327.441 295.554 335.551 276.813C336.648 274.279 339.527 272.978 342.107 273.962L388.052 291.471Z" fill="#D5834E"/>
</g>
<defs>
<filter id="filter0_ddii_0_22" x="0" y="0" width="474" height="474" filterUnits="userSpaceOnUse" color-interpolation-filters="sRGB">
<feFlood flood-opacity="0" result="BackgroundImageFix"/>
<feColorMatrix in="SourceAlpha" type="matrix" values="0 0 0 0 0 0 0 0 0 0 0 0 0 0 0 0 0 0 127 0" result="hardAlpha"/>
<feOffset dx="20" dy="20"/>
<feGaussianBlur stdDeviation="25"/>
<feComposite in2="hardAlpha" operator="out"/>
<feColorMatrix type="matrix" values="0 0 0 0 0.780392 0 0 0 0 0.780392 0 0 0 0 0.780392 0 0 0 0.9 0"/>
<feBlend mode="normal" in2="BackgroundImageFix" result="effect1_dropShadow_0_22"/>
<feColorMatrix in="SourceAlpha" type="matrix" values="0 0 0 0 0 0 0 0 0 0 0 0 0 0 0 0 0 0 127 0" result="hardAlpha"/>
<feOffset dx="-20" dy="-20"/>
<feGaussianBlur stdDeviation="20"/>
<feComposite in2="hardAlpha" operator="out"/>
<feColorMatrix type="matrix" values="0 0 0 0 1 0 0 0 0 1 0 0 0 0 1 0 0 0 0.9 0"/>
<feBlend mode="normal" in2="effect1_dropShadow_0_22" result="effect2_dropShadow_0_22"/>
<feBlend mode="normal" in="SourceGraphic" in2="effect2_dropShadow_0_22" result="shape"/>
<feColorMatrix in="SourceAlpha" type="matrix" values="0 0 0 0 0 0 0 0 0 0 0 0 0 0 0 0 0 0 127 0" result="hardAlpha"/>
<feOffset dx="-1" dy="-1"/>
<feGaussianBlur stdDeviation="1"/>
<feComposite in2="hardAlpha" operator="arithmetic" k2="-1" k3="1"/>
<feColorMatrix type="matrix" values="0 0 0 0 0.780392 0 0 0 0 0.780392 0 0 0 0 0.780392 0 0 0 0.5 0"/>
<feBlend mode="normal" in2="shape" result="effect3_innerShadow_0_22"/>
<feColorMatrix in="SourceAlpha" type="matrix" values="0 0 0 0 0 0 0 0 0 0 0 0 0 0 0 0 0 0 127 0" result="hardAlpha"/>
<feOffset dx="1" dy="1"/>
<feGaussianBlur stdDeviation="1"/>
<feComposite in2="hardAlpha" operator="arithmetic" k2="-1" k3="1"/>
<feColorMatrix type="matrix" values="0 0 0 0 1 0 0 0 0 1 0 0 0 0 1 0 0 0 0.3 0"/>
<feBlend mode="normal" in2="effect3_innerShadow_0_22" result="effect4_innerShadow_0_22"/>
</filter>
</defs>
</svg>
